<?xml version="1.0" encoding="UTF-8"?><svg xmlns="http://www.w3.org/2000/svg" xmlns:xlink="http://www.w3.org/1999/xlink" viewBox="0 0 481.03 235.07"><defs><style>.cls-1{fill:none;}.cls-2{mix-blend-mode:multiply;}.cls-2,.cls-3{isolation:isolate;}.cls-4{clip-path:url(#clippath);}.cls-5{fill:#00ba70;}.cls-6{fill:#00b464;}.cls-7{fill:#00917b;}.cls-8{fill:#ffce00;}.cls-9{fill:#ff4237;}.cls-10{fill:#ff8b00;}.cls-11{fill:#98c555;}.cls-12{fill:#3b5495;}.cls-13{clip-path:url(#clippath-1);}</style><clipPath id="clippath"><rect class="cls-1" width="481.03" height="235.07"/></clipPath><clipPath id="clippath-1"><rect class="cls-1" x=".75" y="1.63" width="479.99" height="233.27"/></clipPath></defs><g class="cls-3"><g id="Web_Bar"><g class="cls-2"><g class="cls-4"><g class="cls-13"><path class="cls-7" d="M328.13,45.27h.01c1.81,1.23,3.55,2.36,5.16,3.42,.55,.34,1.61,1.06,1.61,1.06,2.08,1.37,3.87,2.6,5.23,3.7,4.88,3.95,7.5,8.63,5.99,18.37-.04,.34-.08,.69-.11,1.03-.64,4.37-1.67,6.88-6.56,10.84-8.17,6.48-22.33,16.02-34.61,22.3-4.58,2.33-10.86,.73-13.59-2.34-4.01-4.69-4.45-11-4.46-15.23,.09-3.82,.22-6.8,.35-8.97-2.59,2.64-8.32,6.91-17.19,12.83-.63,.41-1.24,.81-1.85,1.21,.65,5.71,1.25,10.96,1.76,15.46,2.25,19.96,4.51,32.39,7.39,37.19,3.73,6.24,9.09,10.32,15.39,12.59,7.67,2.77,26.55,1.36,34.21-.64,9.25-2.41,16.53-5.41,21.85-9.01,1.91-1.32,3.05-1.98,3.45-1.98,.66,0,.92,.67,.78,1.99-.47,4.13,.01,7.15,1.45,9.08,1.77,2.29,4.22,3.44,7.37,3.45,3.02,0,5.77-.87,8.27-2.63,2.82-2.06,4.14-4.56,3.95-7.51-.57-9.37-2.53-25.12-5.89-47.25-1.42-8.75-6.25-45.56-9.22-68.41-1.78,.13-10.85,.92-15.11,1.97-5.44,1.34-11.3,1.01-16.69-.49-4.7-1.31-8.92-3.82-12.95-6.75,2.04,2.87,4.2,5.86,4.82,6.58,2.69,2.93,5.75,5.65,9.19,8.15m8.75,97.85l-10.23-6.74,4.92-9.96,10.23,6.75-4.92,9.95Zm18.04-43.93c.39,2.34-.45,3.42-2.34,4.14-19.46,7.4-38.91,14.88-58.34,22.39-1.77,.68-3.44,1.73-5.2,2.64,.91,2.69,4.59,3.05,3.17,6.53h-1.72c-.65-.82-1.34-1.61-1.94-2.48-1.94-2.82-1.45-6,1.26-7.81,1.1-.74,2.29-1.36,3.5-1.83,20.05-7.74,40.12-15.45,60.18-23.16,.45-.17,.92-.27,1.44-.42"/><path class="cls-10" d="M260.6,88.64c-3.45-30.68-7.91-70.07-9.52-84.43-7.6,3.18-14.76,7.98-22.42,12.15,4.7,4.9,8.87,9.23,12.88,13.4-3.27,6.66-5.76,12.84-12.5,14.45-1.06,.26-2.3,1.72-2.72,2.94-3.15,9.19-9.08,12.21-17.39,10.45-.87-.18-1.81,.06-3.11,.12-.2,5.79-.39,11.29-.54,15.55,3.38,1.8,6.58,2.48,8.37,4.64,3.7,4.47,7.27,9.07,10.8,13.73,.79,1.04,4.4,5.6,8.28,10.78,7.15-3.11,13.15-5.9,17.94-8.38,3.36-1.72,6.66-3.54,9.91-5.41m-14.37-25.48c-.18,.51-.45,.99-.66,1.46-.25-.04-.45,0-.57-.09-3.5-2.82-4.45-2.42-5.25,2.51-.76,4.64-2.18,16.88-2.75,18.28-1.92-5.91-4.36-11.92-6.07-17.19-2.61,1.21-5.11,.32-6.13-1.67-1.19-2.31,.28-3.95,1.22-5.64,.88-1.56,3.32,.2,3.97,.75,1.15,.97,2.29,3.04,3.07,4.42,1.66,2.95,2.54,6.45,3.91,10.1,.61-4.04,1.12-7.79,1.77-11.5,.29-1.65,.74-3.3,1.33-4.84,.63-1.63,1.58-3.04,3.49-2.11,2.05,.99,3.33,3.69,2.67,5.54"/><path class="cls-12" d="M308.1,79.06c0,3.12-.32,6.32-.95,9.58-.44,2.49-1.03,4.98-1.57,7,.1-.05,.21-.1,.32-.15,11.57-5.54,25.72-15.04,33.9-21.56,2.47-1.88,3.81-3.09,3.86-3.66,0-.09,0-.17-.02-.26-.6-2.59-2.62-4.86-5.33-7.02-3.31-2.71-6.89-4.96-10.44-7.29,0,0-1.74-1.11-2.56-1.71-1.32-.9-3.69-2.98-3.69-2.98-3.8-3.12-11.14-11.73-12.92-16.3-.03-.23,.58-4.63,.97-7.57-2.92-2.32-5.8-4.69-8.76-6.81,1.29,8.6,2.72,18.34,4.3,29.23,1.94,14.66,2.91,24.49,2.9,29.49"/><path class="cls-8" d="M261.61,97.59c-6.56,4.01-11.75,6.71-15.55,8.09-.11,.04-3.32,.65-9.6,1.81,3.34,4.66,6.27,9.09,7.07,11.36,2.39,6.74,5.92,10.08,11.53,13,6.38,3.33,10.65,8.47,13.61,14.71-1.61-5.44-2.88-11.95-3.8-19.58-.45-4.16-1.69-15.3-3.27-29.38"/><path class="cls-9" d="M278.23,77.49c8.27-5.77,12.4-9.39,12.4-10.88,0-.31-1.82-4.56-5.46-12.74-1.99-4.4-5.04-12.65-5.04-13.21,0-.68,.22-2.36,.66-5.02,.5-2.98,.91-4.46,1.24-4.46,.17,0,4.31,8.87,4.71,10.42-.25-.96,1.43,3.97,3.8,8.93,2.09,4.4,3.14,8.03,3.14,10.88,0,6.27-1.85,11.9-5.54,16.9,.08,1.69,.13,4.02,.13,7.03,0,4.8,.74,8.8,2.93,10.79,1.95,1.84,4.74,2.19,7.7,1.72l1.06-.2c1.33-.29,2.67-.75,3.98-1.28-.29-4.31-.78-10.94-.77-11.37-1.14-13.06-4.06-34.98-8.74-65.75-.18-1.14-.37-2.37-.56-3.67-5.16-3.34-10.47-6.37-16.06-8.69-5.97-2.48-13.49-5.24-20.23-4.54,1.32,11.39,5.95,51.22,9.53,82.43,3.77-2.33,7.49-4.74,11.11-7.28"/><path class="cls-11" d="M439.2,133.1c2.88-.39,3.43-1.89,1.7-4.51-3.31-5.01-8.29-7.65-12.4-11.15-1.24,4.35-2.42,8.49-3.71,13,4.6,1.45,9.32,3.36,14.41,2.66"/><path class="cls-6" d="M330.65,192.75c15.6,.18,30.83-3.08,45.86-7.46,10.67-3.12,21.09-7.07,30.58-13.55,2.89-1.97,5.03-4.01,7.99-7.89-3.15-2.25-23.7-8-25.52-8.7-1.2-.45-1.74-1.12-1.33-2.86,.75-3.21,1-4.67,1.44-7.02,.51-2.72,2.42-3.87,4.39-4.87,4.11-2.05,6.73-3.98,10.86-5.98,.83-.41,1.65-.85,2.4-1.23-3.61-12.04,.07-21.87,6.4-30.93-.84-2.36-.54-4.64-.18-6.96-.09-.11-7.86-12.97-11.79-19.3-.19-.3-.3-.86-.18-1.17,2.46-6.31-1.58-8.77-5.17-11.94-5.5-4.84-11.38-9.53-15.67-15.56-3.15-4.44-5.5-6.85-10.57-5.19-.83,.28-2.25-.05-3.31-.63-.46-.24-.84-.54-1.1-.86,2.83,19.69,8.01,58.16,9.96,70.78,2.26,14.61,3.42,25.12,3.47,31.54,.05,7.89-1.58,14.67-4.87,20.34-3.62,6.26-8.61,9.37-14.97,9.36h0c-5.97-.02-9.3-4.9-10-14.63-4.4,3.38-11.39,6.57-20.97,9.56-1.39,.44-2.75,.85-4.1,1.23-8.88,2.51-28.98,3.73-37.69-.27-4.28-1.96-8.73-4.64-11.39-8.05-1.28-1.64-2.46-3.61-3.54-5.89,.65,2.26,1.2,4.62,1.67,7.03,1.92,9.83,4.54,19.66,13.61,24.05,.52,.25,1.07,.48,1.63,.7,.2,.07,.39,.15,.59,.22,2.54,.89,4.95,2.07,7.11,3.58,2.39,.41,4.79,.75,7.21,1.02,9.01,1,18.09,1.42,27.15,1.52m52.2-128.56c5.96,6.9,7.47,15.13,5.96,24.21-.7,4.24-2.07,8.34-2.76,12.58-.39,2.43-.35,5.09,.13,7.49,.24,1.22,1.87,2.08,2.88,3.11,.7-1.07,1.49-2.09,2.08-3.24,.37-.73,.44-1.66,.83-3.31,1.03,4.38,.67,7.84-1.03,10.93-1.65,3-5.08,2.2-6.5-1.32-1.66-4.1-1-8.28-.22-12.42,.85-4.55,1.89-9.06,2.77-13.6,1.18-6.12-.62-11.37-3.97-16.08-2.62-3.68-2.65-3.65-.16-8.35"/><path class="cls-11" d="M472.43,120.05c-5.17,.39-10.45-.18-15.52,.78-5.04,.97-9.49,.59-13.5-.9,2.62,6.74,1.7,15-3.18,20.85-2.88,3.45-6.48,3.35-9.95,2.51-4.3-1.03-8.45-2.83-12.68-4.24-.7-.24-1.6-.51-2.19-.21-5.4,2.69-10.76,5.5-16.57,8.51,2.77,.76,5.16,1.33,7.5,2.08,2.74,.87,5.5,1.75,8.15,2.91,3.67,1.58,5.18,5.08,4.69,9.44-1.06,9.59-6.51,15.42-13.37,20.02-10.52,7.07-21.91,11.56-33.68,14.88l9.24,6.96,4.47-7.86,9.09,6.83c.36-.74,.57-1.26,.48-1.36,5.67-7.24,13.65-11.41,22.8-13.71,19.59-4.92,37-15.35,54.38-25.93,2.32-1.42,5.1-4.19,5.54-6.79,1.41-8.45,2.26-17.09,2.48-25.68,.14-5.42-2.25-9.55-8.17-9.09"/><path class="cls-11" d="M417.81,127.44c.2-.02,.39-.18,.59-.28,6.39-3.13,7.51-9.36,2.61-14.94-.9-1.02-2.19-2.03-3.4-2.2-3.13-.44-8.47,5.51-8.51,9.31,.01,.14,.03,.45,.08,.76,.5,2.79,6.16,7.62,8.63,7.35"/><path class="cls-11" d="M376.22,213.19l-9.67-7.27,5.15-9.13c-1.62,.45-3.25,.89-4.89,1.3-19.88,5.02-41.76,6.14-62.04,3.5,5.82,14.1,12.62,19.31,20.29,33.32,1.13-1.92,8.41-.03,8.47-.76l13.35-13.29c10.47-.96,20.95-1.98,31.43-2.86,1.03-.09,2.31,.37,3.15,1.07,3.61,2.97,5.8,1.37,6.83-2.79,.37-1.49,.82-2.88,1.3-4.23l-8.9-6.71-4.47,7.86Z"/><rect class="cls-7" x="202.43" y="126.14" width="3.66" height="26.37"/><rect class="cls-7" x="193.62" y="126.14" width="3.66" height="26.37"/><rect class="cls-7" x="111.71" y="126.14" width="3.66" height="26.37"/><rect class="cls-7" x="102.9" y="126.14" width="3.66" height="26.37"/><rect class="cls-7" x="68.45" y="131.9" width="3.66" height="20.6"/><rect class="cls-7" x="48.51" y="126.14" width="3.66" height="26.37"/><rect class="cls-7" x="169.4" y="148.39" width="27.88" height="4.12"/><rect class="cls-7" x="25.58" y="148.39" width="46.53" height="4.12"/><rect class="cls-7" x="183.27" y="132.27" width="3.66" height="20.24"/><rect class="cls-7" x="36.13" y="132.27" width="3.66" height="20.24"/><rect class="cls-7" x="25.58" y="132.27" width="3.66" height="20.24"/><rect class="cls-7" x="165.74" y="141.44" width="3.66" height="19.12"/><rect class="cls-7" x="125.52" y="148.39" width="3.66" height="12.18"/><rect class="cls-7" x="125.53" y="148.39" width="13.52" height="4.12"/><rect class="cls-7" x="48.51" y="131.9" width="23.6" height="4.12"/><rect class="cls-7" x="16.28" y="131.9" width="12.96" height="4.12"/><rect class="cls-7" x="95.33" y="148.39" width="11.23" height="4.12"/><path class="cls-7" d="M138.79,130.91c-5.3,0-9.6,4.83-9.6,10.79s4.3,10.8,9.6,10.8,9.6-4.83,9.6-10.8-4.3-10.79-9.6-10.79m0,17.47c-3.28,0-5.94-2.99-5.94-6.68s2.66-6.68,5.94-6.68,5.94,2.99,5.94,6.68-2.66,6.68-5.94,6.68"/><path class="cls-7" d="M169.4,141.71c0-5.96-4.3-10.79-9.6-10.79s-9.6,4.83-9.6,10.79,4.3,10.8,9.6,10.8h9.6v-10.8Zm-3.66,6.68h-5.94c-3.28,0-5.93-2.99-5.93-6.68s2.66-6.68,5.93-6.68,5.94,2.99,5.94,6.68v6.68Z"/><rect class="cls-7" x="92.56" y="141.44" width="3.66" height="19.12"/><path class="cls-7" d="M96.22,141.71c0-5.96-4.3-10.79-9.6-10.79s-9.6,4.83-9.6,10.79,4.3,10.8,9.6,10.8h9.6v-10.8Zm-3.66,6.68h-5.94c-3.28,0-5.93-2.99-5.93-6.68s2.66-6.68,5.93-6.68,5.94,2.99,5.94,6.68v6.68Z"/><path class="cls-7" d="M40.23,126.95c0,1.41-1.02,2.55-2.27,2.55s-2.27-1.14-2.27-2.55,1.02-2.55,2.27-2.55,2.27,1.14,2.27,2.55"/><path class="cls-7" d="M15.88,165.45c0,1.41-1.02,2.55-2.27,2.55s-2.27-1.14-2.27-2.55,1.02-2.55,2.27-2.55,2.27,1.14,2.27,2.55"/><path class="cls-7" d="M9.91,165.45c0,1.41-1.02,2.55-2.27,2.55s-2.27-1.14-2.27-2.55,1.02-2.55,2.27-2.55,2.27,1.14,2.27,2.55"/><path class="cls-7" d="M183.24,157.62c0,1.41-1.02,2.55-2.27,2.55s-2.27-1.14-2.27-2.55,1.02-2.55,2.27-2.55,2.27,1.14,2.27,2.55"/><path class="cls-7" d="M177.28,157.62c0,1.41-1.02,2.55-2.27,2.55s-2.27-1.14-2.27-2.55,1.02-2.55,2.27-2.55,2.27,1.14,2.27,2.55"/><path class="cls-7" d="M16.28,149.86c0,3.69-2.66,6.68-5.94,6.68s-5.93-2.99-5.93-6.68v-9.88H.74v9.88c0,5.96,4.3,10.79,9.6,10.79s9.6-4.83,9.6-10.79v-17.07h-3.66v17.07Z"/><path class="cls-7" d="M48.78,213.28c0,1.41-1.02,2.55-2.27,2.55s-2.27-1.14-2.27-2.55,1.02-2.55,2.27-2.55,2.27,1.14,2.27,2.55"/><path class="cls-7" d="M42.82,213.28c0,1.41-1.02,2.55-2.27,2.55s-2.27-1.14-2.27-2.55,1.02-2.55,2.27-2.55,2.27,1.14,2.27,2.55"/><rect class="cls-7" x="202.43" y="173.98" width="3.66" height="26.37"/><rect class="cls-7" x="193.62" y="173.98" width="3.66" height="26.37"/><rect class="cls-7" x="180.97" y="180.1" width="3.66" height="20.24"/><rect class="cls-7" x="168.96" y="180.1" width="3.66" height="20.24"/><rect class="cls-7" x="156.95" y="180.1" width="3.66" height="20.24"/><rect class="cls-7" x="101.49" y="196.23" width="95.79" height="4.12"/><rect class="cls-7" x="66.27" y="180.63" width="13.88" height="4.12"/><rect class="cls-7" x="50.47" y="180.63" width="11.79" height="4.12"/><rect class="cls-7" x="66.27" y="196.23" width="13.88" height="4.12"/><rect class="cls-7" x="76.49" y="180.63" width="3.66" height="19.71"/><rect class="cls-7" x="58.6" y="180.63" width="3.66" height="19.71"/><path class="cls-7" d="M139.83,179.69c-5.3,0-9.6,4.83-9.6,10.79v6.32h3.66v-6.32c0-3.69,2.66-6.68,5.94-6.68h4.3v-4.12h-4.3Z"/><path class="cls-7" d="M49.46,197.7c0,3.69-2.66,6.68-5.94,6.68s-5.93-2.99-5.93-6.68v-9.88h-3.66v9.88c0,5.96,4.3,10.79,9.6,10.79s9.6-4.83,9.6-10.79v-17.07h-3.66v17.07Z"/><rect class="cls-7" x="98.85" y="189.37" width="3.66" height="19.12"/><path class="cls-7" d="M102.52,189.64c0-5.96-4.3-10.79-9.6-10.79s-9.6,4.83-9.6,10.79,4.3,10.8,9.6,10.8h9.6v-10.8Zm-3.66,6.68h-5.94c-3.28,0-5.93-2.99-5.93-6.68s2.66-6.68,5.93-6.68,5.94,2.99,5.94,6.68v6.68Z"/><rect class="cls-5" x="11.64" y="182.82" width="3.66" height="17.52"/><path class="cls-5" d="M15.31,182.17c0-4.52-3.26-8.19-7.28-8.19s-7.28,3.67-7.28,8.19,3.26,8.19,7.28,8.19h7.28v-8.19Zm-3.66,4.07h-3.62c-2,0-3.62-1.82-3.62-4.07s1.62-4.07,3.62-4.07,3.62,1.82,3.62,4.07v4.07Z"/><rect class="cls-5" x="18.3" y="182.17" width="3.66" height="18.18"/><path class="cls-5" d="M29.78,173.98h-4.2c-4.02,0-7.28,3.67-7.28,8.19h3.66c0-2.25,1.62-4.07,3.62-4.07h4.2"/></g></g></g></g></g></svg>