<?xml version="1.0" encoding="utf-8"?>
<!-- Generator: Adobe Illustrator 26.4.1, SVG Export Plug-In . SVG Version: 6.00 Build 0)  -->
<svg version="1.1" id="Layer_1" xmlns="http://www.w3.org/2000/svg" xmlns:xlink="http://www.w3.org/1999/xlink" x="0px" y="0px"
	 viewBox="0 0 3840 2160" style="enable-background:new 0 0 3840 2160;" xml:space="preserve">
<style type="text/css">
	.st0{fill:#00826F;}
	.st1{opacity:0.18;}
	.st2{clip-path:url(#SVGID_00000062872799284659794180000018141668874053729686_);}
	.st3{clip-path:url(#SVGID_00000166654274082803379110000017147160876947410836_);}
	.st4{fill:#8DC652;}
	.st5{fill:#FFCD00;}
	.st6{fill:#95C456;}
	.st7{fill:#FA8A00;}
	.st8{fill:#00B367;}
	.st9{fill:#FB8900;}
	.st10{fill:#008272;}
	.st11{fill:#F6453B;}
	.st12{fill:#FFCC00;}
	.st13{opacity:7.000000e-02;}
</style>
<g>
	<g id="Text_Page">
		<rect class="st0" width="3840" height="2160"/>
		<g class="st1">
			<g>
				<g>
					<g>
						<defs>
							<rect id="SVGID_1_" x="449.9" y="49.7" width="2861.8" height="2085.8"/>
						</defs>
						<clipPath id="SVGID_00000021089819176216831090000016014879422968596117_">
							<use xlink:href="#SVGID_1_"  style="overflow:visible;"/>
						</clipPath>
						<g style="clip-path:url(#SVGID_00000021089819176216831090000016014879422968596117_);">
							<g>
								<g>
									<g>
										<defs>
											<polygon id="SVGID_00000059304943415623309140000001759380494210022017_" points="130,2192.7 3840.3,2192.7 3840.3,36.1 
												129.9,36.1 											"/>
										</defs>
										<clipPath id="SVGID_00000001636443309633137940000016041917162113929651_">
											<use xlink:href="#SVGID_00000059304943415623309140000001759380494210022017_"  style="overflow:visible;"/>
										</clipPath>
									</g>
								</g>
							</g>
						</g>
					</g>
				</g>
			</g>
		</g>
		<g>
			<g>
				<g>
					<defs>
						<rect id="SVGID_00000040552257198423106310000009429041344012470686_" x="2138" y="1353" width="1702" height="807"/>
					</defs>
					<clipPath id="SVGID_00000036969455341026996940000001840661608480540288_">
						<use xlink:href="#SVGID_00000040552257198423106310000009429041344012470686_"  style="overflow:visible;"/>
					</clipPath>
					<g style="clip-path:url(#SVGID_00000036969455341026996940000001840661608480540288_);">
						<g>
							<g id="Layer10_0_FILL">
								<path class="st0" d="M3844.6,1609.9c-17.8-4.4-41.6-7.2-71.3-8.4c-103.7-4-214.3,30.1-331.9,102.2
									c-117.6,72.2-211,103.5-280,94c-69-9.4-155.7-3.2-260.2,18.7c-87.8,18.4-14.4,54.4-124.4,66.4c-19,2.1-33.5,4.5-43.4,7.3
									c-15.7,4.3-28.1,11-37.3,20c-12.5,12.2-19.2,28.2-20.2,48.1c-0.9,18.7-48.3,14.1-38.9,30.4c13.8,24.1-32.1,45-1.3,59.7
									c22.9,11,0.1,19.9,36.6,27.2c51.4,10.3,108,18.5,169.8,24.7c46.9,4.7,104.1,8.7,171.4,12.2c38.2,1.9,95.5,4.7,171.9,8.3
									c66.5,3.6,123.7,7.9,171.6,13c34.1,3.6,85.3,9.8,153.6,18.3c59.9,6.6,111.2,9.4,154,8.4c17.9-0.4,33.3-1.5,46.1-3.4
									c16.5-2.4,31.2-6.3,44.2-11.8c24.1-10.1,45.1-26.5,63.2-49.1c10.5-13.1,19.3-27.4,26.5-43.1L3844.6,1609.9L3844.6,1609.9z"
									/>
							</g>
							<g id="Layer4_1_FILL">
								<path class="st4" d="M3756.9,1788.6l-1.9,3.7c0,0.4,0,0.9,0.1,1.3c0.2,0.8,0.3,1.4,0.4,2.1L3756.9,1788.6 M3781.4,1794
									l-3.4-7.6l2.5,14.8C3780.7,1798.9,3781,1796.4,3781.4,1794 M3782.4,1787.7l0.1,0.5v-0.2L3782.4,1787.7 M3786.3,1771.5
									l-0.6,0.6l0.4,0.7L3786.3,1771.5L3786.3,1771.5z"/>
								<path class="st5" d="M3767.5,1792.1l-4.2-3l-6.4,15.9c0.1,1.1,0.1,2.1,0.2,2.9c0,5.4-0.9,10.2-2.6,14.4
									c-1.2,3-1.6,6.1-1.3,9.3c0.5,7.6,1.6,18.8,3.3,33.4c1,9.4,0.5,16.7-1.5,21.6c-1.5,3.5-2.1,7-1.8,10.6
									c0.5,7.9,1.6,19.1,3.3,33.6c1,8.9,0.5,15.8-1.5,20.7c-1.3,4.2-1.9,8.2-1.8,12.3c1,11.9,2.3,23.7,3.8,35.4
									c0.7,4.5,0.3,11.2-1.2,20.3c-1.7,9.1-2.1,15.8-1.2,20.3h29c0.9-7,0.9-17-0.3-30.1c-1.2-13.6-1.4-23.6-0.5-30
									c1.3-11.3,1.1-20.4-0.6-27.1c-1.8-9-2.3-17.1-1.3-24.4c1.6-9,2.4-15.2,2.4-18.6c0-1.6-0.4-9.8-1.3-24.5l-1.4-16.7
									c0.8-5.9,1.4-10.3,1.7-13.2c1.1-10.1,1.7-16.7,1.7-19.9c0-7.6-1.1-14.2-3.4-19.8c-0.9-2.1-1-5.9-0.3-11.2
									c0.1-0.8,0.2-1.6,0.3-2.4l-5.8-17.6L3767.5,1792.1L3767.5,1792.1z"/>
								<path class="st6" d="M3858.7,1665.8c-5.2-0.1-11.5,0.8-18.9,2.8c-14.8,4.2-27.4,11.8-37.8,22.9
									c-9.5,10.3-17.4,21.2-23.7,32.9c8.3-20.8,10.6-38.5,6.8-52.9c-3.7-14.9-7.9-26.3-12.6-34.2l-5.9-7.3l-0.7,7.8l8.3,11.5
									l-8.6-8.5l0.9,11.1l15.7,20.9l-17.9-11.1l17.6,20.1l-16.4-12.9l12.3,19.7l-9-7.6l3.7,16.3l-5-3.2l-4.6,8.8l10.4,18.3
									l-11.1-8l-0.8,11.2l-0.8-0.1c0.2-3.7,0.4-7.6,0.5-11.5c0.4-21-2.6-35.9-9-44.8c-6.3-8.8-14.1-16-23.7-21.6l-12.6-5.8
									l-9.7-0.6l-2.8,3.8l10.4-1.8l-12.1,6.8l19.6-0.8l-20.5,11.3l26.7-6.5l-21.1,11.5l27-8.2l-21.7,14.7l31.3-8.3l-15.9,19.4
									l10.4-6.1l-9.4,8l22-3.2l-16,8.8l0.9,5.3l15.7-2.7l-15.1,5v3.6c-0.8-0.9-1.6-1.7-2.6-2.6l-5.5-5.1l4.8,13.6l-7-14.8
									l-9.4-4.5l4.4,11.1l-6.5-12.1l-13.3-6.2l5,8.8l-7.9-10.3l-22.9-6.2l13.4,9.3l-16.4-9.8l-9.9-1.2l3.6,5.8l-9.2-6.1l-4.6-0.3
									l4.3,4.1l-10.1-0.8l6.4,3.8l-4.3,1.1c-2.1,0.4-4.3,0.8-6.7,1.4l-9.4,2l5.1-0.3l-1.1,0.3l2.6-0.4l11-0.6l-10.7,6.2l20.6-6.2
									l-13.2,8.7l17.4-8.7L3652,1692l16.8-9.4l-2.2,18.9l5.2-13.9l-3.1,14.8l7.7,2.5l16-15.5L3680,1706l16.4-10.3l-12.4,12.6
									l5.4,3.6l19.3-12.6l-13.6,13.8l5.9,6.6l25.4,0.4l-16.1,4.2l4,2.6c-2.6-0.4-5.2-0.8-7.8-1c-7.9-0.4-14.8,0.6-20.7,3
									c-9.9,4.3-20,10.4-30.2,18.1l-12,10.5l-2.4,7.8l2.6,0.2l1.8-5.8l-0.9,5.8l4.6-0.5l6.9-13.8l-4.1,13.6l6.3-13.9l0.3,11.5
									l3.8-1.1l2.8-16.4l-1.3,15.4l5.9-1l7.3-19.6l0.9,20l6.4-21.8l-3.3,20.9l4.6-0.3l10.1-22.1l-7.9,23.1l5.6-2l10.6-23.6
									l-8.3,23.6l3-0.8c-6.8,6.6-13.7,14.3-20.8,23.3l-11.6,16.6l-1.2,18.1l6.7-15.1l-0.9,11.3l5.3-10l1.7,2.7l6.5-15.8l2.1,10.2
									l4-23.2l-2.2,22.5l5.2-5.1l0.9-19l1,18.1l3.2-2.1l5-26.4v23.1l3.3-3.4l7.2-21.4l-6.1,21.4l3-2.4l8-23.8l-3.4,21.6l6.4-21.6
									l-4,21.6l2.5-1.8l-1.8,2.4l-13.4,24.4l-0.9,3l12.8-7.6l-13.1,13.3l-3,5.5l10.3-5l-10.8,14.6l9.4-9l-11.4,17.3l0.9,4.6
									l4.8-4.3l-1,13.4l5.9-14.1l-0.1,0.9l1.5,6.7l2-14.6l3.4,5.9l0.9-17.3l0.2-0.6l3,13.5l1.3-20.1l6.5,13l-2-14.1l5.6,9.4
									l2.2-2.3l-4.6-20.3l11.5,10l0.3-17.9l8.3-0.8l-6.9,17.8l11.1-16l-8.2,22.6l9.7-18.6l1.9-3.7l-1.4,7.1l-4.9,24.8l6.4-15.5
									l6.4-15.9l4.2,3l7.1-7.8l5.8,17.6l0.3,0.8l-0.2-1.3l-2.5-14.8l3.4,7.6l2,4.2l-0.9-10.1l-0.1-0.5l0.1,0.3l9.5,24.2l0.8,0.5
									l-2.8-23.2l5.1-22.9l-2.1,28.4l1.5,4.7l7.9-28.2l-4.6,35.1l4.7,9.3l10.4-18.6l-6.9,23.6l8.3-11.8l-5.5,17.3l8.1,10.9
									c0.7-5.7,0.8-12.8,0.2-21.1c-0.7-14.3-3.2-27.4-7.7-39.3l0.5,0.5l4,6.1l4.8,15.1l1.4,14.1v26.4l6.4-12.1l-2-9l4.6,6.3
									l-4.4-13.4l7.4,6.3l-7.4-12.1l5.6,3.2l0.5-7l-10.8-14.7l3.5,1.3l10.1,15.9l2.8-20.1c1.2,17.4,1.8,27,1.8,28.6
									c0.3-1.4,1.6-7.4,4-18.1l1.5,23.1l4.7-15.8l2.8,26.4l1.5-19.3c2,5.7,0.6,1.1-4.4-13.6c-3.2-9.3-10.6-17.4-22.2-24.4
									l-16.6-7.8h-0.3c-1.3-1-2.5-1.9-3.7-2.6l48.6,20.4l-18.5-11.6l9.4-0.7l-2.3-1.8l-12.3-0.8l7.3-2l-8.1-4.8l-23.3-1.2
									l10.5-4.9c-0.6-0.4-3.1-0.7-7.3-1c-2.4-0.2-5.6,0-9.6,0.8l-1.1-2.1l8.7-0.7l-8.8-12.2l10.2,12.1l5.9,0.4l-6.5-12.5l9.8,14.1
									l11.6,0.2l-3.2-10.9l5.8,11.7h1.8l-1-12.1l6.4,13.5l2.9,0.2l-4.2-10l6.7,10l10.6,0.8l2.6-14.4l7,18.8l5.8,4.1l-1-11
									l5.6,14.7l8.2,6.1l0.9-9.5l9.3,7.3c-2.7-6.7-7.1-13.5-13.2-20.4c-11.8-13.9-25.4-21.3-41-22.3l-3.8-0.3
									c-12.4-0.1-24.3,1-35.7,3.3l15.4-8.3l9.6-8l20.9-3.3l19.1,7.7l8.3,5.5l6.8,2.2l2-1.7l7.1,2.3c-9-8.4-14.4-13-16.2-13.9
									l11.1,3l-7.6-8.8l-18.9-0.3l14.9-6.4l-9.7-2.8l-18.3,7.6l12.3-9.8l-5.3-0.2l-14.3,10.3l9.8-11.8l-14.9-1.3l-15.8,14.4
									l-0.5-10l-7.5,3.9l0.9-0.8l5.5-3.8l11.8-5l-9.6-6.8l22.5,1.7l-12.9-8l22.5-2.3l-12.3-2.5l15.4,0.5l5.1-4.2h-15.2l16.6-4.6
									 M3786.6,1726.8l1.1-2.7l4.7-5l-5.7,8.1L3786.6,1726.8 M3801.8,1715l0.4-6.5l6.1-6.6L3801.8,1715 M3795.2,1723.1l1.9-9.1
									l3.8-4.1L3795.2,1723.1 M3739.4,1703.2l0.6,2c-1.1-1.4-2.3-2.8-3.6-4.2l15.6,0.2L3739.4,1703.2 M3720.5,1728
									c-0.9-0.2-1.8-0.4-2.8-0.6l11.9-3.6L3720.5,1728 M3735,1716.8l5.1,6.5c-2.7-3-5.3-5.9-7.9-8.6L3735,1716.8 M3728.7,1763
									l1.1,0.8l-3.5,4.6L3728.7,1763 M3728.4,1730.2c-0.9-0.3-1.8-0.6-2.6-0.8l6.5-2.3L3728.4,1730.2 M3785.8,1771.9l0.6-0.6
									l-0.2,1.2L3785.8,1771.9L3785.8,1771.9z"/>
							</g>
							<g id="Layer4_2_FILL">
								<path class="st7" d="M2462.1,1801.9l-6.4,7l-3.7-2.7l-5.8,14.3c0.1,1,0.2,1.9,0.2,2.6c0,4.8-0.8,9.1-2.4,12.8
									c-1.1,2.7-1.4,5.5-1.1,8.3c0.4,6.8,1.4,16.8,2.9,30c0.9,8.5,0.4,14.9-1.4,19.4c-1.3,3.1-1.9,6.3-1.6,9.5
									c0.4,7.1,1.4,17.1,2.9,30.2c0.9,8,0.4,14.2-1.4,18.6c-1.2,3.8-1.7,7.4-1.6,11.1c0.9,10.7,2,21.2,3.4,31.7
									c0.6,4,0.3,10.1-1.1,18.3c-1.5,8.1-1.9,14.2-1.1,18.2h26c0.9-6.3,0.8-15.3-0.3-27c-1.1-12.2-1.2-21.1-0.4-26.8
									c1.2-10.2,1-18.3-0.5-24.3c-1.6-8.1-2-15.4-1.1-21.9c1.4-8.1,2.1-13.7,2.1-16.7c0-1.5-0.4-8.8-1.1-22l-1.3-15
									c0.7-5.2,1.2-9.2,1.5-11.8c1.1-9,1.6-15,1.6-17.9c0-6.8-1-12.7-3.1-17.8c-0.8-1.9-0.9-5.3-0.3-10.1c0.1-0.7,0.2-1.4,0.3-2.1
									L2462.1,1801.9L2462.1,1801.9z"/>
								<path class="st8" d="M2560.4,1741.7l-6.8-7.8l-17-0.3l13.4-5.8l-8.7-2.6l-16.5,6.8l11.1-8.8l-4.8-0.2l-12.8,9.3l8.7-10.6
									l-13.3-1.1l-14.2,12.8l-0.4-9l-6.6,3.5l0.8-0.8l4.9-3.3l10.6-4.5l-8.6-6.1l20.2,1.6l-11.6-7.2l20.2-2l-11.1-2.2l13.8,0.4
									l4.5-3.8h-13.6l14.9-4.1c-4.7-0.1-10.3,0.7-17,2.5c-13.3,3.8-24.6,10.6-33.9,20.5c-8.5,9.2-15.6,19-21.2,29.5
									c7.4-18.7,9.5-34.5,6.1-47.4c-3.3-13.4-7.1-23.6-11.3-30.7l-5.2-6.6l-0.6,7l7.5,10.3l-7.7-7.6l0.9,9.9l14.1,18.7l-16.1-9.9
									l15.8,18.1l-14.7-11.6l11,17.6l-8.1-6.8l3.4,14.7l-4.5-2.9l-4.1,7.8l9.3,16.5l-9.9-7.2l-0.6,10l-0.7-0.1
									c0.2-3.3,0.4-6.8,0.4-10.3c0.3-18.8-2.4-32.2-8.1-40.2c-5.6-7.9-12.7-14.4-21.2-19.3l-11.3-5.2l-8.7-0.5l-2.4,3.4l9.3-1.6
									l-10.9,6.1l17.6-0.7l-18.3,10.2l24-5.8l-19,10.3l24.2-7.4l-19.5,13.3l28.1-7.5l-14.2,17.4l9.3-5.4l-8.4,7.2l19.7-2.9
									l-14.3,7.9l0.7,4.7l14.2-2.4l-13.5,4.5v3.2c-0.7-0.8-1.5-1.6-2.3-2.3l-4.9-4.6l4.3,12.2l-6.3-13.3l-8.4-4.1l4,10l-5.9-10.8
									l-11.9-5.6l4.5,7.9l-7-9.3l-20.6-5.6l12,8.3l-14.7-8.8l-8.9-1.1l3.3,5.1l-8.3-5.3l-4.1-0.3l3.9,3.6l-9.1-0.6l5.6,3.3l-3.8,1
									c-1.9,0.3-3.9,0.8-6.1,1.3l-8.4,1.8l4.6-0.3l-1,0.3l2.4-0.4l9.9-0.5l-9.6,5.6l18.4-5.6l-11.8,7.8l15.6-7.8l-10.6,10.3
									l15.1-8.3l-2,16.9l4.7-12.4l-2.9,13.3l6.9,2.2l14.3-13.9l-11.1,14.8l14.7-9.3l-11.1,11.3l4.8,3.1l17.4-11.3l-12.2,12.4
									l5.2,5.9l22.8,0.4l-14.4,3.8l3.6,2.2c-2.3-0.4-4.7-0.7-7-0.9c-7.1-0.4-13.2,0.5-18.5,2.7c-8.9,3.9-17.9,9.3-27.1,16.2
									l-10.8,9.5l-2.1,7l2.3,0.2l1.6-5.2l-0.7,5.2l4.1-0.4l6.1-12.4l-3.6,12.2l5.6-12.4l0.2,10.3l3.4-1.1l2.4-14.7l-1.1,13.8
									l5.2-0.9l6.6-17.6l0.9,18l5.6-19.6l-2.9,18.8l4.1-0.2l9.1-19.8l-7.1,20.7l5-1.8l9.5-21.2l-7.4,21.2l2.7-0.7
									c-6.1,5.8-12.4,12.8-18.6,21l-10.4,14.9l-1.1,16.3l6.1-13.6l-0.9,10.1l4.7-9l1.6,2.5l5.9-14.2l1.9,9.2l3.6-20.8l-2,20.1
									l4.7-4.6l0.7-17.1l0.9,16.2l2.9-1.8l4.5-23.6v20.7l2.9-3.1l6.5-19.2l-5.4,19.2l2.7-2.1l7.1-21.4l-3,19.4l5.6-19.4l-3.6,19.4
									l2.2-1.6l-1.6,2.1l-12,21.8l-0.9,2.7l11.5-6.8l-11.7,12l-2.7,4.9l9.2-4.5l-9.7,13.1l8.4-8.1l-10.2,15.5l0.9,4.1l4.3-3.8
									l-0.9,12l5.3-12.6l-0.1,0.9l1.4,6.1l1.8-13.1l3,5.2l0.9-15.5l0.2-0.5l2.7,12.1l1.1-18.1l5.9,11.7l-1.8-12.6l5,8.3l2-2
									l-4.1-18.3l10.2,9l0.3-16.1l7.4-0.6l-6.1,16l9.9-14.3l-7.4,20.3l10.4-20l-5.6,28.6l5.6-13.9l5.8-14.3l3.7,2.7l6.4-7
									l5.2,15.8l0.2,0.7l-2.4-14.5l4.9,10.6l-0.9-9.1l-0.1-0.4l8.6,21.9l0.6,0.4l-2.5-20.8l4.6-20.5l-1.9,25.5l1.4,4.3l7-25.2
									l-4.1,31.4l4.3,8.3l9.3-16.7l-6.1,21.2l7.4-10.6l-4.9,15.6l7.2,9.7c0.6-5.1,0.7-11.4,0.2-18.9c-0.6-12.8-2.9-24.5-6.9-35.2
									l0.4,0.4l3.6,5.4l4.4,13.6l1.3,12.6v23.7l5.6-10.8l-1.8-8.1l4.1,5.6l-3.9-12l6.6,5.6l-6.6-10.8l5,2.9l0.4-6.3l-9.7-13.1
									l3.1,1.1l9.1,14.3l2.5-18.1c1.1,15.6,1.6,24.2,1.6,25.7c0.3-1.2,1.5-6.6,3.6-16.2l1.4,20.7l4.2-14.2l2.5,23.7l1.4-17.3
									c1.8,5.1,0.5,1-3.9-12.2c-2.8-8.3-9.4-15.6-19.9-21.8l-14.9-7.1h-0.3c-1.1-0.9-2.2-1.7-3.3-2.3l43.6,18.3l-16.5-10.4
									l8.4-0.6l-2-1.6l-11.1-0.7l6.6-1.8l-7.3-4.3l-21-1.1l9.4-4.4c-0.6-0.3-2.7-0.6-6.5-0.9c-2.1-0.2-5,0.1-8.6,0.8l-1-1.8
									l7.8-0.6l-7.9-11l9.2,10.8l5.2,0.4l-5.9-11.2l8.8,12.6l10.4,0.2l-2.9-9.8l5.2,10.5h1.6l-0.9-10.8l5.7,12.1l2.6,0.2l-3.8-9
									l6.1,9l9.5,0.7l2.3-12.9l6.3,16.9l5.2,3.6l-0.9-9.8l4.9,13.3l7.4,5.4l0.7-8.6l8.4,6.5c-2.4-6-6.4-12.1-11.8-18.3
									c-10.5-12.5-22.8-19.1-36.8-20l-3.4-0.2c-11.1-0.1-21.8,0.9-32.1,2.9l13.7-7.5l8.7-7.2l18.7-2.9l17.2,6.8l7.4,4.9l6.1,2
									l1.8-1.6l6.4,2.1c-8-7.6-12.9-11.7-14.5-12.5L2560.4,1741.7 M2482.4,1739l3.4-3.6l-5.1,11.8L2482.4,1739 M2486.9,1734.1
									l5.4-5.9l-5.8,11.8L2486.9,1734.1 M2473.2,1751l-0.2-0.5l1.1-2.3l4.2-4.5L2473.2,1751 M2430.7,1729.4l0.5,1.7
									c-1.1-1.3-2.1-2.5-3.2-3.7l14,0.2L2430.7,1729.4 M2424.2,1739.8l2.5,1.8l4.6,5.9C2428.8,1744.7,2426.5,1742.1,2424.2,1739.8
									 M2413.7,1751.6c-0.8-0.2-1.6-0.4-2.4-0.5l10.7-3.2L2413.7,1751.6 M2420.8,1753.5c-0.8-0.3-1.6-0.5-2.4-0.7l5.9-2
									L2420.8,1753.5 M2421.1,1782.9l1,0.8l-3.1,4.1L2421.1,1782.9 M2472.5,1791.6l-0.3-0.6l0.5-0.5L2472.5,1791.6z"/>
							</g>
							<g id="Layer4_3_FILL">
								<path class="st9" d="M3336.3,1704.4l-5.1,12.6c0.5,3.2,0.9,5.9,0.9,8.2c0.1,5.1-0.7,9.8-2.5,14.1c-1.1,2.4-1.5,5.4-1.3,9.2
									c1.1,14.6,2.2,25.6,3.1,33c1,9.1,0.5,16.3-1.7,21.5c-1.2,2.9-1.7,6.4-1.5,10.3c0.4,7.7,1.4,18.9,3.1,33.6
									c1,8.2,0.5,14.9-1.5,20.2c-1.5,4.1-2.1,8.2-1.7,12.2c0.8,11.8,2.1,23.4,3.8,35.1c0.6,4.3,0.1,11.1-1.5,20.2
									c-1.6,8.7-2,15.4-1.3,20h28.7c1.1-7.1,1.1-17,0-29.9c-1.2-13.6-1.4-23.4-0.7-29.6c1.2-10.8,1.1-19.7-0.4-26.7
									c-2-8.6-2.4-16.6-1.3-24.2c1.6-10.8,2.3-16.8,2.3-18.2c0-3.5-0.5-11.6-1.5-24.4c-1-7.3-1.5-12.7-1.5-16.4
									c0-1.7,0.2-3.9,0.7-6.7c0.5-3.4,0.9-5.6,1-6.8c1.3-9.2,1.9-15.7,1.9-19.6c0.1-7.4-1-13.9-3.3-19.5c-1-2.4-1.2-6.1-0.7-11.2
									c0.4-2.7,0.8-5.3,1.3-8l-5.1-11.6l2.3,16l-5.8-18.3l-7.1,7.8L3336.3,1704.4L3336.3,1704.4z"/>
								<path class="st10" d="M3424,1591.3l5-4.3l-14.9-0.1l16.4-4.5c-5.2-0.1-11.5,0.8-18.8,2.7c-14.6,4.1-27,11.7-37.3,22.8
									c-9.3,9.9-17,20.4-23.2,31.7c7.9-20.3,10.1-37.5,6.6-51.7c-3.8-14.7-8-25.9-12.6-33.6l-5.7-7.4l-0.7,7.8l8.1,11.2l-8.3-8.2
									l1.1,11l15.4,20.6l-17.9-11l17.5,19.9l-16.3-12.8l12.3,19.3l-8.9-7.4l3.8,16.2l-5.3-3.2l-4.3,8.7l10.1,18.1l-10.9-8l-0.7,11
									h-0.7c0.2-3.6,0.4-7.4,0.4-11.4c0.3-20.8-2.6-35.5-8.8-44.4c-6.4-8.7-14.2-15.8-23.6-21.2l-12.4-5.7l-9.5-0.7l-2.8,3.7
									l10.3-1.7l-11.8,6.7l19.2-0.6l-20,11.2l26.3-6.6l-21,11.6l26.8-8.2l-21.4,14.7l30.8-8.4l-15.9,19.3l10.3-6.1l-9.2,8.2
									l21.7-3.4l-15.8,8.7l0.8,5.2l15.9-2.7l-15,5.1v3.5c-0.8-0.9-1.6-1.8-2.5-2.7l-5.5-4.9l4.9,13.4l-6.9-14.7l-9.3-4.7l4.4,11
									l-6.5-11.8l-13.1-6.2l4.8,8.6l-7.8-9.8l-22.6-6.5l13.3,9.2l-16.2-9.6l-10.1-1.3l3.7,5.7l-9.2-5.8l-4.4-0.2l4.1,3.7l-9.9-0.7
									l6.1,3.9l-4.7,1.3c-1.9,0.3-4,0.7-6.3,1.2l-9,2.1l4.2-0.2h-0.2l13.5-0.9l-10.5,6.1l20-6.1l-12.9,8.7l17.1-8.7l-11.5,11.4
									l16.6-9l-2.3,18.4l5.3-13.6l-3.1,14.5l7.8,2.5l15.8-15.4l-12.5,16.4l16.3-10.2l-12.3,12.4l5.3,3.7l19.2-12.6l-13.3,13.9
									l5.5,6.3l25.3,0.6l-16,4l4.5,2.7c-2.9-0.5-5.7-0.8-8.3-1c-8.1-0.4-14.8,0.5-20.2,2.9c-10,4.4-20,10.4-30,18.1l-12.2,10.3
									l-2.1,7.8l2.3,0.2l1.9-5.8l-0.6,5.8l4.4-0.4l6.5-13.8l-3.8,13.4l6.1-13.6l0.5,11.3l3.6-1l2.9-16.2l-1.3,15.1l5.7-0.9
									l7.2-19.5l1.1,19.8l6.3-21.4l-3.1,20.6l4.2-0.5l10.1-21.7l-7.8,22.7l5.5-1.9l10.3-23.3l-8,23.3l2.8-0.7
									c-6.7,6.4-13.5,14.1-20.3,23l-11.6,16.6l-1.3,17.9l6.9-14.9l-1.2,11l5.4-10l1.7,2.9l6.5-15.8l1.9,10.1l3.8-22.9l-2.1,22.2
									l5.3-4.9l0.6-18.8l1.3,17.7l3.2-1.9l4.8-26.1v22.7l3.1-3.2l7.5-21.4l-5.9,21.2l2.9-2.3l7.8-23.5l-3.4,21.4l6.3-21.6l-4,21.4
									l2.2-1.5l-1.6,2.1l-13,24l-1.1,3.2l12.9-7.4l-13.2,13l-2.8,5.5l10.1-4.8l-10.7,14.2l9.2-9l-11.1,17.2l1,4.4l4.6-4l-1,13.2
									l6-14.3l-0.1,1.3l1.5,6.7l1.9-14.4l3.2,5.6l0.9-16.8l0.3-0.7l2.9,13.2l1.5-19.7l6.3,12.8l-1.9-13.9l5.5,9.3l2.1-2.5
									l-4.4-19.9l11.1,9.8l0.4-17.6l8-0.7l-6.5,17.4l10.9-15.6l-8.4,22.1l11.6-21.8l-6.1,31.5l7.5-18.6l5.1-12.6l4,3l7.1-7.8
									l5.8,18.3l-2.3-16l5.1,11.6v-0.1l-0.9-10.2l9.3,24.2l0.9,0.4l-2.7-23l4.7-22.6l-1.9,28.2l1.5,4.6l7.8-27.7l-4.4,34.4
									l4.6,9.4l10.1-18.4l-6.5,23.3l8.2-11.6l-5.5,17l7.7,10.7c0.7-5.6,0.9-12.6,0.5-21c-0.7-14-3.2-26.8-7.6-38.6l0.4,0.4
									l4.1,6.1l4.4,14.9l1.7,13.9v26l6.1-12l-1.9-8.8l4.7,6.1l-4.3-13l7,6.4l-7.2-12l5.5,2.9l0.4-6.9l-10.5-14.2l3.7,1.2l9.8,15.6
									l2.5-19.8c1.4,18.2,2,27.7,1.9,28.4l4-17.9l1.3,22.9l4.8-15.8l3,26.1l1.2-19.2c2.1,5.6,0.7,1.1-4.2-13.4
									c-3.1-9.1-10.4-17.2-21.9-24.2l-16.5-7.8h-0.2c-1.5-1.2-3-2.2-4.4-2.9c-1.9-0.9-3.7-1.8-5.6-2.6l1.9-2l2.7,0.4l10.5,4.2
									l41.8,33l-14.5-15.7l9,1.7l-1.7-2.1l-11.6-4.3h7.6l-6.5-6.7l-21.9-7.3l11.3-1.9c-0.6-0.6-2.7-1.6-6.5-3
									c-2.4-0.8-5.9-1.5-10.3-1.9l-6.1-0.2l-5.1,0.6l-0.7-1.3l8.3-0.7l-8.5-12.2l10.1,12l5.7,0.5l-6.3-12.2l9.7,13.6l11.3,0.4
									l-3.3-10.7l5.7,11.4l2.1,0.2l-1.3-12l6.3,13.2l2.9,0.2l-4.1-9.9l6.7,10.1l10.5,0.9l2.5-14.3l7,18.7l5.5,3.8l-0.8-10.7
									l5.5,14.5l8.4,5.8l0.7-9.4l9,7.2c-2.7-6.6-7-13.3-12.9-20.2c-11.5-13.6-25.1-20.9-40.6-22c-1.6,0-2.8-0.1-3.6-0.2
									c-12.5,0-24.5,1.2-36.1,3.5l15.7-8.4l9.7-8l20.7-3.2l7.5,3.6l11.4,3.8l8.2,5.4l6.8,2.1l1.9-1.7l6.9,2.5
									c-8.9-8.4-14.1-13-15.8-13.9l10.9,3l-7.8-8.6l-18.3-0.2l14.6-6.6l-9.5-2.7l-18.1,7.3l12-9.4l-5.1-0.4l-14.3,10.1l9.9-11.6
									l-14.8-1.1l-15.7,13.9l-0.5-9.6l-7.3,3.7l0.8-0.9l5.5-3.8l11.6-4.9l-9.3-6.7l22.1,1.7l-12.6-8l22.1-2.1l-12.2-2.5
									L3424,1591.3 M3305.3,1630.7l2.8,2.3l5.1,6.4C3310.4,1636.3,3307.8,1633.3,3305.3,1630.7 M3293.7,1644.2c-1-0.3-2-0.5-3-0.7
									l12.3-3.7L3293.7,1644.2 M3305.5,1643.1l-3.9,3.1c-0.1,0-0.2,0.1-0.3,0.1c-0.9-0.3-1.9-0.7-2.8-0.9L3305.5,1643.1
									 M3312.8,1619.5l0.7,2.6c-1.2-1.6-2.4-3.2-3.8-4.7l15.5,0.2L3312.8,1619.5 M3359.2,1642.7l1.3-2.8l5.1-5.4l-6,8.8
									L3359.2,1642.7 M3369.8,1629.8l3.7-3.9l-5.7,13.3L3369.8,1629.8 M3374,1631.2l0.5-6.6l5.9-6.4L3374,1631.2 M3358.4,1687.4
									l0.5-0.5l-0.3,1.1L3358.4,1687.4 M3303.1,1679.4l-3.2,4.3l2.1-5.1L3303.1,1679.4z"/>
							</g>
							<g id="Layer3_0_FILL">
								<path class="st7" d="M2459.1,2161l20.5-172.3c-9.8,17.3-29.9,27.8-60.5,31.3h-120.9c-31.1,0-53.1,18.3-66.1,54.8l-23.9,86.2
									H2459.1 M3087.8,1679.1l-7.4-9.3l-121.2-4.9l-23.5-27.8c-2.3-3.8-6.9-6.2-13.7-7.2h-64.6c-20.7-1.9-34.7,6.8-41.8,26.1
									c-11.9,38.2-30.6,59.6-56,64l-71.1,3.9c-17.4,1.1-29,19.7-34.8,55.8c-5.8,36-10.2,83.1-13.2,141.5l45.3,2.3
									c19.8-36.3,44.6-53.9,74.4-52.9h162.6c19.3,0.8,35.3-9.6,48.1-31.4c7.4-17.1,12.5-34.3,15.4-51.6
									c3.5-21.2,24.2-37.8,62.2-49.7C3071.2,1730.7,3084.3,1711.1,3087.8,1679.1 M2787.6,1811.2V1761h6.1v50.2H2787.6
									 M2830.3,1811.2V1761h6.1v50.2H2830.3 M2799,1754.3h-15.2l7.6-11.2L2799,1754.3 M2872.1,1761h6.1v50.2h-6.1V1761
									 M2875.9,1743.2l7.6,11.2h-15.2L2875.9,1743.2 M2834,1743.2l7.6,11.2h-15.2L2834,1743.2 M2834,1818.6l7.6,11.2h-15.2
									L2834,1818.6 M2883.4,1829.7h-15.2l7.6-11.2L2883.4,1829.7 M2798.9,1829.7h-15.2l7.6-11.2L2798.9,1829.7 M2751.8,1761v50.2
									h-6.1V1761H2751.8 M2742,1754.3l7.6-11.2l7.6,11.2H2742 M2742,1829.7l7.6-11.2l7.6,11.2H2742 M3717.6,1926.6l-22.2-159.3
									c-3.4-15-11.6-22.3-24.8-21.9h-95.9c-9.7,0.4-17.6,6.4-23.8,17.8l-43.2,116l-1.2-12.5h-125.2l33.9,294.3h335L3717.6,1926.6
									 M3592.9,1953.6v-27h27.1v27H3592.9 M2985.8,1993.5h-27.1v27h27.1V1993.5 M2814.5,1981.1h-27.1v27h27.1V1981.1 M3132.4,1794
									l-12.4,18h24.6L3132.4,1794 M3079.3,1812h24.6l-12.2-17.9L3079.3,1812 M3099.5,1786.7h24.6l-12.2-17.9L3099.5,1786.7
									 M3154.9,1698.6h27.1v-27h-27.1V1698.6z"/>
								<path class="st11" d="M2749.6,1818.6l-7.6,11.2h15.2L2749.6,1818.6 M2749.6,1743.2l-7.6,11.2h15.2L2749.6,1743.2
									 M2751.9,1811.2V1761h-6.1v50.2H2751.9 M2783.8,1829.8h15.2l-7.6-11.2L2783.8,1829.8 M2868.3,1829.8h15.2l-7.6-11.2
									L2868.3,1829.8 M2841.7,1829.8l-7.6-11.2l-7.6,11.2H2841.7 M2841.7,1754.3l-7.6-11.2l-7.6,11.2H2841.7 M2883.5,1754.3
									l-7.6-11.2l-7.6,11.2H2883.5 M2878.2,1761.1h-6.1v50.2h6.1V1761.1 M2783.9,1754.3h15.2l-7.6-11.2L2783.9,1754.3
									 M2830.3,1761.1v50.2h6.1v-50.2H2830.3 M2787.7,1761.1v50.2h6.1v-50.2H2787.7 M2643.6,2057.4h24.6l-12.2-17.9L2643.6,2057.4
									 M2602.9,2057.4h24.6l-12.2-17.9L2602.9,2057.4 M2635.4,2014.1l-12.3,17.9h24.6L2635.4,2014.1 M3291.1,2002.6l-12.3,17.9
									h24.6L3291.1,2002.6 M3344.1,2020.5l-12.2-17.9l-12.3,17.9H3344.1 M3311.3,1977.3l-12.3,17.9h24.6L3311.3,1977.3
									 M3408.2,1723.3h24.6l-12.2-17.9L3408.2,1723.3 M3408.2,1660.6h24.6l-12.2-17.9L3408.2,1660.6 M3420.5,1674.1l-12.3,17.9
									h24.6L3420.5,1674.1 M3240.6,1613.1c-33.1-2.2-69.4-1.6-108.9,1.9c-22.3,1.6-36.7,20.5-43.2,56.7c-0.1,2.5-0.3,5-0.6,7.5
									c-3.5,32-16.6,51.6-39.4,58.7c-38,11.9-58.7,28.5-62.2,49.7c-2.8,17.3-8,34.5-15.4,51.6c-12.8,21.7-28.8,32.2-48.1,31.4
									h-162.6c-29.8-1-54.6,16.6-74.4,52.9l129.1,6.3c1.8,0,3.6,0.1,5.4,0.2c18.3,1.6,30.4,13.2,36.5,34.8
									c0.3,1.2,0.6,2.5,0.9,3.8l18.9,87.7c13.6-69.1,41.6-108.3,83.7-117.7h252.1l46.8-94.3c7.6-11.4,18.8-17.9,33.4-19.4
									l-29.5-189.6c-0.1-0.8-0.3-1.6-0.5-2.4C3259.8,1620.6,3252.5,1614,3240.6,1613.1 M3182.2,1698.6H3155v-27h27.1
									L3182.2,1698.6 M3124.1,1786.7h-24.6l12.3-17.9L3124.1,1786.7 M3104,1812h-24.6l12.3-17.9L3104,1812 M3120.2,1812l12.3-17.9
									l12.2,17.9H3120.2z"/>
								<path class="st12" d="M3593,1926.6v27h27.1v-27H3593 M3794.7,1929c-1,0-2.1,0-3.1,0c-23.2-0.1-47.9-0.9-73.9-2.4l32.5,234.3
									h93.5v-200.2c-6.8-19.6-17.4-30.2-31.9-31.9c-4.5,0.1-9.1,0.1-13.7,0.2h-0.1C3796.8,1929,3795.8,1929,3794.7,1929
									 M3410.3,1589.8c-7.9,2.9-12.4,9.6-13.4,20l-35.8,214.7h-64.9c-1.2,0.1-2.4,0.2-3.6,0.3c-14.6,1.5-25.7,8-33.4,19.4
									l-46.8,94.3h-252.1c-42.1,9.4-70.1,48.6-83.7,117.6l-18.9-87.7c-0.3-1.3-0.6-2.6-0.9-3.8c-6.1-21.6-18.2-33.1-36.5-34.8
									c-1.8-0.1-3.6-0.2-5.4-0.2l-129.1-6.3l-45.3-2.3l-22.2-1c-7.5-2.1-14.6-10.8-21.5-26.1c-6.9-15.4-16.1-23.8-27.4-25.1
									l-50.1-1.4c-16,0.1-25.1,5.9-27.4,17.4l-12.2,103.8l-20.5,172.3h956.1l-33.9-294.3h116.4c3-0.6,5.8-1.6,8.5-3l-25.5-255.2
									c-0.1-0.7-0.2-1.3-0.3-1.9c-2.1-11.3-10-17-23.7-17.3C3442.9,1589,3427.5,1589.2,3410.3,1589.8 M3408.2,1692.1l12.3-17.9
									l12.2,17.9H3408.2 M3432.7,1660.6h-24.6l12.3-17.9L3432.7,1660.6 M3432.7,1723.4h-24.6l12.3-17.9L3432.7,1723.4
									 M3298.9,1995.2l12.3-17.9l12.2,17.9H3298.9 M3331.8,2002.6l12.2,17.9h-24.6L3331.8,2002.6 M3278.7,2020.5l12.3-17.9
									l12.2,17.9H3278.7 M2787.4,1981.1h27.1v27h-27.1V1981.1 M2958.8,1993.5h27.1v27h-27.1V1993.5 M2623,2032.1l12.3-17.9
									l12.2,17.9H2623 M2627.4,2057.4h-24.6l12.3-17.9L2627.4,2057.4 M2668.1,2057.4h-24.6l12.3-17.9L2668.1,2057.4z"/>
							</g>
						</g>
					</g>
				</g>
			</g>
		</g>
	</g>
</g>
<g class="st13">
	<g>
		<path d="M486.7,839.6c16.4,44.9,39.8,96,58.1,146.3c5.4-11.9,19.1-116.1,26.3-155.6c7.7-42,16.8-45.4,50.3-21.4
			c1.1,0.8,3,0.5,5.4,0.8c2-4,4.6-8,6.3-12.4c6.3-15.8-6-38.7-25.6-47.2c-18.3-7.9-27.4,4.1-33.4,18c-5.7,13.1-10,27.2-12.8,41.2
			c-6.2,31.6-11.1,63.5-17,97.9c-13-31.1-21.5-60.9-37.4-85.9c-7.4-11.7-18.4-29.4-29.4-37.6c-6.2-4.7-29.6-19.7-38-6.3
			c-9.1,14.4-23.1,28.4-11.7,48C437.8,842.3,461.7,849.9,486.7,839.6L486.7,839.6z"/>
		<polygon points="1501,1477.9 1548.1,1393.2 1450.2,1335.8 1403.1,1420.5 		"/>
		<path d="M1050.4,1320.2c-25.9,15.4-30.6,42.5-12.1,66.5c5.7,7.4,12.3,14.1,18.6,21.1h16.5c13.6-29.6-21.6-32.7-30.3-55.5
			c16.8-7.7,32.8-16.6,49.7-22.4c186.1-63.9,372.2-127.5,558.6-190.5c18-6.1,26.1-15.4,22.4-35.2c-4.9,1.2-9.4,2.1-13.7,3.5
			c-192.1,65.6-384.1,131.2-576.1,197.1C1072.3,1308.6,1061,1313.9,1050.4,1320.2L1050.4,1320.2z"/>
		<path d="M1019.8,1694.4c83.4,34,275.8,23.6,360.8,2.3c12.9-3.2,25.9-6.7,39.2-10.4c91.7-25.5,158.6-52.6,200.7-81.4
			c6.7,82.8,38.6,124.4,95.7,124.5l0,0c60.9,0.2,108.6-26.4,143.3-79.6c31.5-48.2,47-105.9,46.6-173.1
			c-0.5-54.6-11.6-144.1-33.2-268.4c-18.7-107.5-44.2-302.9-71.3-470.5l-16.6-98.9l-62.7-26.8l13.1,84.5
			c28.4,194.5,50.5,375.8,64.1,450.3c32.1,188.4,50.9,322.4,56.4,402.1c1.8,25.1-10.8,46.4-37.8,63.9c-23.9,15-50.3,22.5-79.1,22.4
			c-30.1-0.1-53.6-9.9-70.5-29.4c-13.8-16.4-18.4-42.1-13.9-77.2c1.3-11.3-1.2-16.9-7.5-17c-3.8,0-14.8,5.6-33,16.9
			c-50.9,30.6-120.6,56.2-209.2,76.7c-73.3,17-254.1,29-327.5,5.4c-60.2-19.4-111.6-54.1-147.3-107.2
			c-27.5-40.9-49.2-146.6-70.7-316.5c-4.9-38.3-10.6-83-16.8-131.6c5.8-3.3,11.7-6.8,17.7-10.3c85-50.3,139.8-86.7,164.6-109.2
			c-1.3,18.5-2.5,43.9-3.4,76.4c0.1,36,4.4,89.7,42.7,129.6c26.2,26.2,86.3,39.8,130.1,19.9c117.6-53.5,253.1-134.6,331.3-189.8
			c46.8-33.7,56.7-55.1,62.8-92.3c0.4-2.9,0.7-5.9,1.1-8.8c14.4-82.9-10.7-122.8-57.3-156.3c-13-9.4-30.1-19.8-50-31.5
			c0,0-10.1-6.2-15.4-9c-15.4-9-32.1-18.7-49.4-29.2l-0.1,0.1c-32.9-21.3-62.3-44.4-88-69.4c-5.9-6.1-26.6-31.5-46.2-56
			c-26.7-33-31.9-86.9-31.9-86.9l-10.7,58c-3.8,25-9.6,62.5-9.3,64.5c17.1,38.9,87.4,112.2,123.7,138.7c0,0,22.8,17.7,35.4,25.3
			c7.8,5.1,24.5,14.6,24.5,14.6c33.9,19.8,68.3,39,99.9,62c25.9,18.3,45.3,37.7,51,59.7c0.2,0.8,0.2,1.5,0.2,2.2
			c-0.4,4.9-13.3,15.2-36.9,31.2c-78.2,55.4-213.7,136.3-324.5,183.5c-1,0.4-2,0.8-3,1.2c5.2-17.2,10.8-38.4,15-59.6
			c6-27.8,9-54.9,9.1-81.5c0.1-42.6-9.1-126.2-27.7-251c-15.1-92.7-28.8-175.6-41.2-248.8l-12.5-70.2l-63.8-27.7l9.1,57.3
			c1.9,11,3.7,21.5,5.4,31.2c44.8,262,72.7,448.5,83.6,559.6c0,3.7,4.7,60.2,7.4,96.8c-12.5,4.5-25.4,8.4-38.1,10.9l-10.1,1.7
			c-28.3,4-55,1-73.7-14.6c-20.9-16.9-28-51-28-91.8c0-25.6-0.5-45.4-1.2-59.8c35.3-42.5,53-90.4,53-143.8c0-24.3-10-55.2-30.1-92.6
			c-22.7-42.2-38.9-84.2-36.4-76c-3.9-13.2-43.5-88.7-45.1-88.7c-3.2,0-7.1,12.7-11.9,38c-4.2,22.7-6.3,36.9-6.3,42.7
			c0,4.8,29.3,75,48.3,112.4c34.8,69.7,52.2,105.8,52.2,108.5c0,12.7-39.6,43.5-118.7,92.6c-34.7,21.6-70.3,42.1-106.4,61.9
			c-34.2-265.6-78.6-604.7-91.2-701.6L729.7,184L662,154.5l17.7,141c15.4,122.1,58.1,457.5,91.1,718.5c-31.2,15.9-75.8,37-94.9,46
			c-19.1,9.1-196.9,92.5-280.4,120.2c27.1,20.8,96.4,27.9,236.1-21.2c36.4-11.8,86.1-34.7,148.9-68.8c15.1,119.8,27,214.6,31.3,250
			c8.8,64.9,21,120.4,36.3,166.7c0,0,8.5,31.2,28.8,68.7c10.3,19.4,21.6,36.2,33.9,50.1C936.2,1654.9,978.9,1677.7,1019.8,1694.4
			L1019.8,1694.4z"/>
		<path d="M2520.8,1280.5c-41-71.2-109.3-134.8-185.2-203s-100.6-6.6-100.6-6.6l0,0c-3.5,19.8-6.4,39.1,1.7,59.2
			c-60.6,77.1-95.8,160.8-61.3,263.2c-7.1,3.2-15,7-22.9,10.5c-39.5,17.1-64.7,33.5-104,50.9c-18.9,8.4-37.1,18.2-42.1,41.4
			c-4.2,20-6.6,32.4-13.8,59.7c-3.9,14.8,1.3,20.6,12.8,24.4c17.4,5.9,214.1,54.9,244.3,74c-28.4,33.1-48.9,50.4-76.5,67.2
			c-90.9,55.1-190.6,88.8-292.8,115.3c-143.9,37.3-305.2,71.3-454.6,69.8c-69.8-0.7-203-8-203-8c-129.3-14.8-285.8-96-313.8-200.2
			c41.6,247.4,233.9,269.5,284.5,277.1c194.1,22.5,403.6,12.9,593.9-29.8c15.7-3.5,31.3-7.2,46.8-11.1l-49.3,77.7l92.6,61.9
			l42.8-66.9l85.2,57.1l51-80.3l-87-58.1l-42.8,66.9l-88.4-59.3c112.7-28.2,221.7-66.5,322.4-126.6c65.6-39.2,117.8-88.8,128-170.3
			c4.7-37.1-9.7-66.8-44.9-80.3c-25.4-9.8-51.8-17.3-78-24.7c-22.4-6.4-45.4-11.2-71.8-17.7c55.7-25.6,106.9-49.6,158.7-72.4
			c5.7-2.5,14.3-0.2,21,1.8c40.5,12,80.2,27.3,121.4,36.1c33.2,7.1,67.7,8,95.3-21.3C2537,1408.1,2545.9,1337.8,2520.8,1280.5
			L2520.8,1280.5z M2281.5,1342.1c-1.9,0.9-3.7,2.2-5.6,2.4c-23.6,2.3-77.9-38.8-82.6-62.5c-0.5-2.7-0.6-5.3-0.8-6.5
			c0.4-32.4,51.6-83,81.5-79.3c11.5,1.4,23.9,10,32.5,18.8C2353.4,1262.4,2342.6,1315.4,2281.5,1342.1z M2480.6,1392.6
			c-48.8,6-94-10.3-138-22.7c12.3-38.4,23.6-73.6,35.5-110.6c39.4,29.9,87,52.3,118.7,94.9
			C2513.4,1376.6,2508.1,1389.3,2480.6,1392.6z"/>
		<path d="M1980.7,1014c-8.4,38.7-18.3,77-26.5,115.8c-7.4,35.2-13.7,70.8,2.1,105.7c13.6,30,46.5,36.7,62.2,11.2
			c16.2-26.2,19.7-55.8,9.8-93c-3.8,14-4.4,21.9-8,28.2c-5.6,9.8-13.2,18.5-19.9,27.6c-9.6-8.7-25.2-16.1-27.5-26.4
			c-4.5-20.4-5-43.1-1.2-63.8c6.6-36.1,19.7-71,26.4-107.1c14.4-77.2,0-147.3-57.1-206c-23.9,40-23.5,39.8,1.5,71.1
			C1974.8,917.2,1992,961.9,1980.7,1014z"/>
	</g>
</g>
</svg>
